<svg viewBox="0 0 1280 64" width="1280" height="64" fill="none" xmlns="http://www.w3.org/2000/svg" role="img" aria-label="Backend, APIs e integrações · São Paulo, Brasil · Português e inglês">
  <defs>
    <linearGradient id="stbg" x1="0" y1="0" x2="1" y2="1">
      <stop offset="0%" stop-color="#0C1626"/>
      <stop offset="100%" stop-color="#060B14"/>
    </linearGradient>
    <pattern id="stdots" width="22" height="22" patternUnits="userSpaceOnUse">
      <circle cx="1.4" cy="1.4" r="1.1" fill="#3CF0A0" opacity="0.05"/>
    </pattern>
    <linearGradient id="strule" x1="0" y1="0" x2="1" y2="0">
      <stop offset="0%" stop-color="#22D3EE" stop-opacity="0.5"/>
      <stop offset="55%" stop-color="#22D3EE" stop-opacity="0.3"/>
      <stop offset="100%" stop-color="#22D3EE" stop-opacity="0.04"/>
    </linearGradient>
    <filter id="stglow" x="-80%" y="-80%" width="260%" height="260%">
      <feGaussianBlur stdDeviation="2.2" result="b"/>
      <feMerge><feMergeNode in="b"/><feMergeNode in="SourceGraphic"/></feMerge>
    </filter>
  </defs>
  <rect x="0" y="0" width="1280" height="64" rx="16" fill="url(#stbg)"/>
  <rect x="0" y="0" width="1280" height="64" rx="16" fill="url(#stdots)"/>
  <rect x="0.75" y="0.75" width="1278.5" height="62.5" rx="15.5" fill="none" stroke="#1B2A45" stroke-width="1.5"/>
  <g stroke="#22D3EE" stroke-width="1.6" stroke-linecap="round" opacity="0.4">
    <path d="M14 26 L14 14 L26 14"/>
    <path d="M1266 26 L1266 14 L1254 14"/>
    <path d="M14 38 L14 50 L26 50"/>
    <path d="M1266 38 L1266 50 L1254 50"/>
  </g>

  <g font-family="'JetBrains Mono','Fira Code','Cascadia Code','Courier New',monospace" font-size="15" font-weight="600" letter-spacing="0.6">
    <rect x="261.8" y="14" width="325.2" height="36" rx="18" fill="#0B1524" stroke="#22D3EE" stroke-opacity="0.45"/>
    <g transform="translate(287.8,32) rotate(45)"><rect x="-4.2" y="-4.2" width="8.4" height="8.4" fill="#22D3EE"><animate attributeName="opacity" values="0.55;1;0.55" dur="2.6s" repeatCount="indefinite"/></rect></g>
    <text x="305.8" y="37" fill="#9EDFEE">BACKEND · APIs · INTEGRAÇÕES</text>
    <rect x="609.0" y="14" width="231.2" height="36" rx="18" fill="#0B1524" stroke="#22D3EE" stroke-opacity="0.45"/>
    <circle cx="635.0" cy="32" r="6.6" fill="none" stroke="#22D3EE" stroke-opacity="0.5"/><circle cx="635.0" cy="32" r="3.4" fill="none" stroke="#22D3EE" stroke-opacity="0.85"/><circle cx="635.0" cy="32" r="1.5" fill="#22D3EE"/>
    <text x="653.0" y="37" fill="#9EDFEE">SÃO PAULO · BRASIL</text>
    <rect x="862.2" y="14" width="156.0" height="36" rx="18" fill="#0B1524" stroke="#22D3EE" stroke-opacity="0.45"/>
    <circle cx="888.2" cy="32" r="6.6" fill="none" stroke="#22D3EE" stroke-opacity="0.65"/><path d="M881.6 32h13.2M888.2 25.4c2 2 2 11.2 0 13.2M888.2 25.4c-2 2-2 11.2 0 13.2" fill="none" stroke="#22D3EE" stroke-opacity="0.55"/>
    <text x="906.2" y="37" fill="#9EDFEE">PT-BR · EN</text>
  </g>
</svg>
